<svg width="18" height="18" viewBox="0 0 18 18" fill="currentColor" xmlns="http://www.w3.org/2000/svg">
<mask id="mask0_10500_578" style="mask-type:alpha" maskUnits="userSpaceOnUse" x="0" y="0" width="18" height="18">
<rect width="18" height="18" />
</mask>
<g mask="url(#mask0_10500_578)">
<path d="M9 15.75C7.1125 15.75 5.51562 15.4594 4.20937 14.8781C2.90312 14.2969 2.25 13.5875 2.25 12.75V5.25C2.25 4.425 2.90937 3.71875 4.22813 3.13125C5.54688 2.54375 7.1375 2.25 9 2.25C10.8625 2.25 12.4531 2.54375 13.7719 3.13125C15.0906 3.71875 15.75 4.425 15.75 5.25V12.75C15.75 13.5875 15.0969 14.2969 13.7906 14.8781C12.4844 15.4594 10.8875 15.75 9 15.75ZM9 6.6C10.075 6.6 11.1781 6.43438 12.3094 6.10313C13.4406 5.77188 14.1688 5.4 14.4938 4.9875C14.1563 4.5875 13.4219 4.21875 12.2906 3.88125C11.1594 3.54375 10.0625 3.375 9 3.375C7.9 3.375 6.79375 3.5375 5.68125 3.8625C4.56875 4.1875 3.8375 4.5625 3.4875 4.9875C3.8375 5.425 4.5625 5.80312 5.6625 6.12187C6.7625 6.44062 7.875 6.6 9 6.6ZM8.98125 10.6125C9.50625 10.6125 10.0312 10.5844 10.5562 10.5281C11.0812 10.4719 11.5844 10.3875 12.0656 10.275C12.5469 10.1625 13.0063 10.025 13.4438 9.8625C13.8813 9.7 14.275 9.51875 14.625 9.31875V6.4125C14.2625 6.6125 13.8625 6.79375 13.425 6.95625C12.9875 7.11875 12.525 7.25625 12.0375 7.36875C11.55 7.48125 11.05 7.56875 10.5375 7.63125C10.025 7.69375 9.50625 7.725 8.98125 7.725C8.45625 7.725 7.93125 7.69375 7.40625 7.63125C6.88125 7.56875 6.37813 7.48125 5.89688 7.36875C5.41563 7.25625 4.95938 7.11875 4.52813 6.95625C4.09688 6.79375 3.7125 6.6125 3.375 6.4125V9.31875C3.7125 9.51875 4.09375 9.7 4.51875 9.8625C4.94375 10.025 5.39688 10.1625 5.87813 10.275C6.35938 10.3875 6.8625 10.4719 7.3875 10.5281C7.9125 10.5844 8.44375 10.6125 8.98125 10.6125ZM9 14.625C9.6 14.625 10.2188 14.5719 10.8563 14.4656C11.4938 14.3594 12.0781 14.2188 12.6094 14.0438C13.1406 13.8688 13.5906 13.675 13.9594 13.4625C14.3281 13.25 14.55 13.0312 14.625 12.8062V10.4625C14.275 10.6625 13.8813 10.8406 13.4438 10.9969C13.0063 11.1531 12.5469 11.2875 12.0656 11.4C11.5844 11.5125 11.0844 11.5969 10.5656 11.6531C10.0469 11.7094 9.51875 11.7375 8.98125 11.7375C8.44375 11.7375 7.9125 11.7094 7.3875 11.6531C6.8625 11.5969 6.35938 11.5125 5.87813 11.4C5.39688 11.2875 4.94375 11.1531 4.51875 10.9969C4.09375 10.8406 3.7125 10.6625 3.375 10.4625V12.825C3.4375 13.0375 3.65 13.2531 4.0125 13.4719C4.375 13.6906 4.825 13.8844 5.3625 14.0531C5.9 14.2219 6.4875 14.3594 7.125 14.4656C7.7625 14.5719 8.3875 14.625 9 14.625Z" />
</g>
</svg>
