<svg width="46" height="56" viewBox="0 0 46 56" fill="currentColor" xmlns="http://www.w3.org/2000/svg">
<path d="M0.489258 47.4522V43.2689H6.06704V22.0734C6.06704 18.1689 7.21745 14.6712 9.51829 11.5802C11.8191 8.48915 14.852 6.54854 18.617 5.75836V4.22447C18.617 3.06243 19.0238 2.0747 19.8372 1.26128C20.6506 0.447851 21.6383 0.0411377 22.8004 0.0411377C23.9624 0.0411377 24.9501 0.447851 25.7636 1.26128C26.577 2.0747 26.9837 3.06243 26.9837 4.22447V5.75836C30.7487 6.54854 33.7816 8.48915 36.0825 11.5802C38.3833 14.6712 39.5337 18.1689 39.5337 22.0734V43.2689H45.1115V47.4522H0.489258ZM22.8004 55.8189C21.2665 55.8189 19.9534 55.2728 18.8611 54.1804C17.7688 53.0881 17.2226 51.775 17.2226 50.2411H28.3781C28.3781 51.775 27.832 53.0881 26.7397 54.1804C25.6474 55.2728 24.3343 55.8189 22.8004 55.8189ZM10.2504 43.2689H35.3504V22.0734C35.3504 18.5872 34.1302 15.6241 31.69 13.1838C29.2497 10.7435 26.2865 9.52336 22.8004 9.52336C19.3143 9.52336 16.3511 10.7435 13.9108 13.1838C11.4705 15.6241 10.2504 18.5872 10.2504 22.0734V43.2689Z" />
</svg>
